<mxfile host="app.diagrams.net" modified="2023-12-25T19:55:20.414Z" agent="Mozilla/5.0 (Windows NT 10.0; Win64; x64) AppleWebKit/537.36 (KHTML, like Gecko) Chrome/120.0.0.0 Safari/537.36" version="22.1.11" etag="bU_1-kUdY5xxq1tewESw" type="github">
  <diagram name="Страница — 1" id="cDcatpXT-7EI3tgx4sZ9">
    <mxGraphModel>
      <root>
        <mxCell id="0" />
        <mxCell id="1" parent="0" />
      </root>
    </mxGraphModel>
  </diagram>
</mxfile>
